<svg id="Layer_1" data-name="Layer 1" xmlns="http://www.w3.org/2000/svg" viewBox="0 0 700 231" fill="#fff"><title>Artboard 1</title><path d="M459,166.24c-9,0-18.09,0-27.14,0-1.63,0-2.3-.25-2.23-2.09.16-4,.11-8,0-12,0-1.42.38-1.83,1.79-1.81q19.09.18,38.17.24c5.14,0,10.28.11,15.41-.07s6.45-1.7,6.45-6.8c0-1.45-.13-2.91-.14-4.36,0-5.72-1.63-8.2-6.94-10.35-6-2.41-12.17-4.05-18.24-6.13-7.94-2.72-16.16-4.69-23.67-8.6C429.87,107.75,425.69,96.82,429,82.8c2.21-9.35,9.41-13.68,18.2-15.79a48.72,48.72,0,0,1,11.4-1.22c14.57,0,29.14,0,43.71,0,1.79,0,2.38.42,2.28,2.27-.2,3.74-.19,7.5-.2,11.25,0,1.48-.49,2-2.1,2-14.88-.08-29.75-.05-44.63,0a37.62,37.62,0,0,0-4.35.29c-6.7.79-8.43,4.49-8.3,10.69.1,4.67,2.62,7.74,6.95,9.25,5.26,1.83,10.6,3.46,15.87,5.29,8.23,2.86,16.23,6.33,24.33,9.53,12.46,4.92,16.76,12.16,16.33,26.61a33.83,33.83,0,0,1-.85,7.06c-2.31,9.43-8.07,14.6-17.84,16-8.78,1.21-17.6.28-26.4.48-1.46,0-2.91,0-4.37,0Z"/><path d="M285.52,65.94c14.79,0,29.59,0,44.38,0,1.82,0,2.28.48,2.22,2.25-.14,4-.13,8,0,12,.06,1.68-.5,2-2.06,2-11.27-.07-22.54,0-33.8-.08-2,0-2.66.39-2.65,2.56.09,26.45,0,52.89.11,79.34,0,2.29-.63,2.82-2.8,2.71-3.82-.19-7.67-.16-11.49,0-1.93.08-2.39-.53-2.38-2.41q.09-39.21,0-78.42c0-3.73,0-3.73-3.68-3.73-10.88,0-21.77,0-32.65,0-1.64,0-2.28-.27-2.2-2.09.15-4,.14-8,0-12-.06-1.71.38-2.15,2.12-2.14C255.63,66,270.57,65.94,285.52,65.94Z"/><path d="M675.59,65.73c-1.94,0-2.6.35-2.56,2.48.18,10.19.15,20.39.21,30.58,0,7.36.12,14.72.15,22.07,0,7.63,0,15.27,0,23-1-.41-1.16-1.2-1.54-1.81Q658.16,120.2,644.49,98.3c-5.33-8.49-10.33-17.19-16.13-25.37-2.36-3.33-5.29-6.07-9.53-6.64-10.47-1.4-14.89,3-15.8,11.58a76.2,76.2,0,0,0-.42,8q0,34,0,68.09v2.4c-2.87-5.72-5.36-11.5-7.84-17.29q-14-32.55-27.93-65.11c-1.62-3.79-4.09-6.62-8.05-8-7.1-2.4-14.2,1-17.36,8.42q-16.81,39.3-33.59,78.61l-5.71,13.35c5.66,0,10.94-.14,16.21.08,1.8.07,2.34-.6,2.9-2,3-7.68,6.16-15.31,9.18-23a2.41,2.41,0,0,1,2.67-1.79q21,.09,42.1,0a2.35,2.35,0,0,1,2.64,1.79c3,7.77,6.09,15.49,9.08,23.27a2.37,2.37,0,0,0,2.61,1.86q13.92-.11,27.83,0c1.56,0,1.86-.48,1.86-1.94,0-11.73.14-23.45.2-35.18q.1-19.32.17-38.63c0-.4-.24-.91.39-1.33l.69,1.09c6.44,10.49,12.84,21,19.34,31.48,7.19,11.56,14,23.36,21.54,34.7,2.43,3.65,5.15,7.08,9,9.42a11.65,11.65,0,0,0,17.64-7.07c.3-1.14.17-2.4,1-3.39V65.56C684.62,66.06,680.1,65.76,675.59,65.73ZM570.81,124.38H537.38l7.54-18.64q3.73-9.23,7.45-18.47c.39-1,.87-1.84,2-1.89s1.71.88,2.08,1.82q7.17,18.21,14.31,36.44A2.37,2.37,0,0,1,570.81,124.38Z"/><path d="M420.69,93.86a57.87,57.87,0,0,0-3.59-9.66c-4.7-9.95-11.73-17.18-22.9-19.56H355.09c-.07.12-.13.33-.23.35-10.34,1.85-16.84,8.52-21.42,17.39-5.71,11-7.86,23-7.7,35.27.15,11.89,2.74,23.24,9.16,33.42,6,9.54,14.45,15.23,26.08,15.32,9.27.08,18.54.15,27.81.14a31.19,31.19,0,0,0,11.47-1.91c9.55-3.73,15.17-11.17,18.69-20.3C425.33,127.75,425.27,110.86,420.69,93.86Zm-12.87,26.62c-.41,7-1.32,13.86-4.8,20.11-3.71,6.66-9.4,10.06-17,10.16-3.68,0-7.36,0-11,0-3.53,0-7.05,0-10.58,0-7,.08-12.2-3.09-15.64-9.06-3.73-6.46-4.76-13.65-5.16-21-.45-8.22-.22-16.38,2.31-24.3,2.22-6.92,5.93-12.59,13.34-14.88a18.69,18.69,0,0,1,5.65-.83c6.21,0,12.42,0,18.62,0,10.34,0,17.48,4.8,21.24,14.42C407.93,103.32,408.32,111.86,407.81,120.48Z"/><path d="M242.42,103.74a2.89,2.89,0,0,0-3-1.81c-5.29.14-10.58.12-15.87,0-1.91,0-4.24.91-5.43-1.71-.1-.21-.86-.17-1.31-.17q-35,0-69.93,0c-.56,0-1.3-.27-1.58.54-.4,1.16-1.35,1.06-2.27,1.06h-9.89c-.68,0-1.62.2-1.89-.49-.54-1.43-1.65-1.1-2.66-1.1-14.57,0-29.14,0-43.7,0-2,0-4.29-.86-5.83,1.38-.15.21-.72.19-1.09.19-5.44,0-10.89,0-16.33,0-2.16,0-2.56-1.38-2.52-3s.49-2.85,2.51-2.83c5.44,0,10.89,0,16.33,0,.82,0,1.68.09,1.9.94.4,1.59,1.54,1.38,2.69,1.37h45.08c1.44,0,3.09.52,3.58-1.7.18-.81,1.15-.58,1.81-.59h9.2c1.44,0,2.94-.29,3.37,1.78.19.9,1.17.51,1.8.51q34.5,0,69,0c.6,0,1.59.07,1.74-.22,1.28-2.5,3.56-1.69,5.51-1.73,4.18-.08,8.36,0,12.88,0-.49-.57-.67-.82-.89-1-8.33-7.84-18.23-13.08-28.78-17.18-21.12-8.22-43.19-11.7-65.7-12.92h-2.75l-3.65,0-13.91.06-3.67,0h-2.75a240.22,240.22,0,0,0-37.29,4.68c-15.23,3.22-30,7.76-43.57,15.59-7.22,4.16-13.77,9.13-18.62,16-7.15,10.21-6.31,21.93,1,30.73.51-1.11,1.5-1.14,2.53-1.14q7.59,0,15.18,0c.85,0,2-.15,2.29.69.74,2,2.29,1.61,3.75,1.61h69c1,0,2.15.38,2.66-1.11.26-.78,1.17-.57,1.84-.57h10.12c.84,0,1.79-.13,2.1.93s1,.75,1.67.75H174c.52,0,1.3.23,1.5-.28.87-2.2,2.73-1.61,4.33-1.62,4.6,0,9.2,0,13.8,0,2.13,0,3.23,1,3.09,3-.12,1.78-.79,3-3,2.91-5.13-.12-10.27-.05-15.41,0-1.13,0-2.18,0-2.65-1.3-.33-.9-1.09-.7-1.74-.7h-46.7c-.53,0-1.35-.15-1.47.35-.59,2.47-2.51,1.74-4.06,1.77-2.84.06-5.67,0-8.51,0-.6,0-1.49.2-1.68-.42-.71-2.33-2.55-1.71-4.12-1.71q-34.16,0-68.32,0c-1.19,0-2.43-.29-3.2,1.16-.41.77-1.4.43-2.14.44-4.68,0-9.35.05-14,.07.45.37.93.71,1.36,1.1a82.55,82.55,0,0,0,23.5,14.55c24.37,10.43,50.08,14.17,76.33,15A247.61,247.61,0,0,0,171.68,164c16.11-2.83,31.78-7.1,46.4-14.63,8.72-4.49,16.81-9.86,22.58-18C246.87,122.57,247.66,113.34,242.42,103.74ZM114.93,71.55c5.43,0,10.87,0,16.3,0s10.87,0,16.3,0c2.72,0,4.28,1.39,4.23,3.69s-1.56,3.58-4.14,3.58q-16.3,0-32.6,0c-2.69,0-4.28-1.44-4.24-3.72S112.37,71.55,114.93,71.55ZM83.19,84.19c6.13,0,12.25,0,18.38,0,.52,0,1.34,0,1.51.32,1.25,2.17,3.29,1.46,5.08,1.49q6,.09,11.95,0c1.88,0,3.95.65,5.37-1.45.4-.58,1.43-.37,2.2-.37,6.66,0,13.32,0,20,0,2.32,0,3.48,1.05,3.44,3S150,90,147.55,90H127.33c-.75,0-1.74.24-2.13-.51-1-1.89-2.63-1.47-4.17-1.48-5,0-10,0-14.93,0-1,0-1.94-.1-2.43,1.15-.36.91-1.33.86-2.2.86-6,0-12.1-.05-18.15,0-2.07,0-2.77-1.19-2.79-2.85S81.12,84.18,83.19,84.19Zm62.11,74.53a3.74,3.74,0,0,1-3.47,1.84c-11,0-22,0-33,0-2.58,0-4-1.55-4-3.75s1.58-3.54,4.18-3.56c5.43,0,10.86,0,16.29,0s11-.06,16.52,0C145,153.28,146.79,156.2,145.29,158.72Zm27-9.78c-5.9-.07-11.8,0-17.7,0-.68,0-1.61.18-1.92-.46-1-2-2.73-1.52-4.34-1.53H133.39c-.91,0-1.79-.14-2.29,1-.37.84-1.28,1-2.17,1q-10.58,0-21.15,0c-2.05,0-3-1.16-2.95-3a2.72,2.72,0,0,1,3-3h10.58c3.22,0,6.44,0,9.66,0,.85,0,1.95-.17,2.39.51,1.21,1.87,3,1.48,4.67,1.49h14.49c1.06,0,2.09.16,2.71-1.12.39-.81,1.35-.88,2.23-.88,5.9,0,11.8,0,17.71,0,2.11,0,3.12,1.08,3,3.12S174.38,149,172.3,148.94Zm42-26.4c0,1.56-.6,2.83-2.59,2.78-2.68-.07-5.36,0-8,0-2.3,0-4.6,0-6.9,0-1.45,0-2.94.25-3.65-1.57-.27-.68-1.08-.42-1.66-.42l-60.24,0c-1,0-1.84,0-2,1.28-.11.92-.9.88-1.61.88h-6.44c-.53,0-1.34.12-1.42-.44-.37-2.41-2.18-1.68-3.56-1.68q-32.54,0-65.07,0c-1.18,0-2.45-.32-3,1.3-.3.82-1.27.69-2,.69-5.29,0-10.58,0-15.86,0-2.12,0-2.66-1.23-2.67-2.92s.43-3,2.57-3c5.36,0,10.73,0,16.1,0,.53,0,1.24-.14,1.5.36,1.11,2.15,3.06,1.54,4.8,1.55q32.19,0,64.38,0c1.12,0,2.54.53,2.93-1.3,0-.18.65-.35,1-.35,2.38,0,4.75,0,7.13,0,.3,0,.8,0,.86.17,1,2.5,3.2,1.46,4.86,1.47,19.08.07,38.17,0,57.25,0,1.1,0,2.29.3,2.86-1.19.26-.68,1.06-.74,1.8-.74,5.44,0,10.88,0,16.33,0C213.92,119.4,214.29,120.94,214.25,122.54Zm9.08-11.25c0,1.56-.6,2.83-2.59,2.78-2.68-.07-5.36,0-8,0-2.3,0-4.6,0-6.9,0-1.45,0-2.94.25-3.65-1.57-.27-.68-1.08-.42-1.66-.42l-60.24,0c-1,0-1.84,0-2,1.28-.11.92-.9.88-1.61.88H130.2c-.53,0-1.34.12-1.42-.44-.37-2.41-2.18-1.68-3.56-1.68q-32.54,0-65.07,0c-1.18,0-2.45-.32-3,1.3-.3.82-1.27.69-2,.69-5.29,0-10.58,0-15.86,0-2.12,0-2.66-1.23-2.67-2.92s.43-3,2.57-3c5.36,0,10.73,0,16.1,0,.53,0,1.24-.14,1.5.36,1.11,2.15,3.06,1.54,4.8,1.55q32.19,0,64.38,0c1.12,0,2.54.53,2.93-1.3,0-.18.65-.35,1-.35,2.38,0,4.75,0,7.13,0,.3,0,.8,0,.86.17,1,2.5,3.2,1.46,4.86,1.47,19.08.07,38.17,0,57.25,0,1.1,0,2.29.3,2.86-1.19.26-.68,1.06-.74,1.8-.74,5.44,0,10.88,0,16.33,0C223,108.15,223.37,109.68,223.33,111.29Z"/></svg>